HIERARCHY
ROOT pelvis
{
  OFFSET 0 100 0
  CHANNELS 6 Xposition Yposition Zposition Zrotation Xrotation Yrotation
  JOINT pelvis_right_femur
  {
    OFFSET -10.78128 -3.44521 -0.5502486
    CHANNELS 3 Zrotation Xrotation Yrotation
    JOINT right_femur_tibia
    {
      OFFSET -0.8047443 -44.0398 -0.1307829
      CHANNELS 3 Zrotation Xrotation Yrotation
      JOINT right_tibia_foot
      {
        OFFSET 3.006224 -47.83518 -5
        CHANNELS 3 Zrotation Xrotation Yrotation
        End Site
        {
          OFFSET 0 -5 15
        }
      }
    }
  }
  JOINT pelvis_left_femur
  {
    OFFSET 10.78128 -3.44521 -0.5502486
    CHANNELS 3 Zrotation Xrotation Yrotation
    JOINT left_femur_tibia
    {
      OFFSET 0.8047443 -44.0398 -0.1307829
      CHANNELS 3 Zrotation Xrotation Yrotation
      JOINT left_tibia_foot
      {
        OFFSET -4.370144 -48.10324 -4.275266
        CHANNELS 3 Zrotation Xrotation Yrotation
        End Site
        {
          OFFSET 0 -5 15
        }
      }
    }
  }
  JOINT pelvis_spine1
  {
    OFFSET 0 6.468898 -3.129235
    CHANNELS 3 Zrotation Xrotation Yrotation
    JOINT spine1
    {
      OFFSET 0 23.15396 4.99043
      CHANNELS 3 Zrotation Xrotation Yrotation
      JOINT spine2
      {
        OFFSET 0 20.79997 -5.064912
        CHANNELS 3 Zrotation Xrotation Yrotation
        JOINT neck
        {
          OFFSET 0 14.38658 9.616178
          CHANNELS 3 Zrotation Xrotation Yrotation
          End Site
          {
            OFFSET 0 20 0
          }
        }
      }
      JOINT right_manubrium
      {
        OFFSET -5.722621 16.35077 3.967754
        CHANNELS 3 Zrotation Xrotation Yrotation
        JOINT right_clavicle
        {
          OFFSET -13.16364 1.694482 -4.693211
          CHANNELS 3 Zrotation Xrotation Yrotation
          JOINT right_humerus
          {
            OFFSET -28.5034 -0.3100689 -2.792744
            CHANNELS 3 Zrotation Xrotation Yrotation
            JOINT right_radius
            {
              OFFSET -25.15693 0.02248979 -1.271978
              CHANNELS 3 Zrotation Xrotation Yrotation
              End Site
              {
                OFFSET -15 0 0
              }
            }
          }
        }
      }
      JOINT left_manubrium
      {
        OFFSET 5.722621 16.35077 3.967754
        CHANNELS 3 Zrotation Xrotation Yrotation
        JOINT left_clavicle
        {
          OFFSET 13.16364 1.694482 -4.693211
          CHANNELS 3 Zrotation Xrotation Yrotation
          JOINT left_humerus
          {
            OFFSET 29.39168 -1.063119 -2.237045
            CHANNELS 3 Zrotation Xrotation Yrotation
            JOINT left_radius
            {
              OFFSET 24.59957 -0.9528479 0.9047498
              CHANNELS 3 Zrotation Xrotation Yrotation
              End Site
              {
                OFFSET 15 -0 -0
              }
            }
          }
        }
      }
    }
  }
}
MOTION
Frames: 17
Frame Time: 0.0416666666667
0 103.5113 0 1.547297 0.05329538 0.0950501 3.300887 -16.86092 11.76647 -0 40.33999 -0 -5.759218 -17.63945 -3.347875 -7.997726 8.119663 -23.42218 -0 5.00718 -0 15.66641 -12.6818 30.58501 -4.249706 -3.974687 5.762216 2.531139 10.06846 -7.337969 1.700988 21.61341 6.489188 2.721507 -24.76212 10.12684 6.934042 -20.46903 11.70478 85.1297 39.12943 -17.42056 -0 0 16.73704 -5.560724 7.801569 3.606052 5.518018 -18.94891 -0.9186669 -91.55798 19.98682 20.43863 0 0 -14.31017 16.62526 13.28483 -4.661376
0.3465115 103.9138 1.545063 1.286055 0.2718726 0.1826034 3.709239 -18.32537 11.25274 -0 38.90914 -0 -5.755059 -16.80474 -3.138432 -7.764212 8.606654 -23.02982 -0 5.126092 -0 15.07153 -13.40449 29.97495 -4.072435 -3.746406 5.588848 2.589483 10.05189 -7.411824 1.675949 21.53557 6.55044 2.830482 -24.91284 10.07405 6.831962 -20.31672 11.66633 85.23679 38.88708 -17.66636 -0 0 16.48143 -5.719957 7.873877 3.655276 5.759624 -19.195 -1.029149 -91.5124 20.30887 20.22545 0 0 -14.98425 16.37079 13.41967 -4.419058
0.695569 103.9408 4.058166 0.1621215 -0.1808027 0.2909479 4.307091 -24.54267 6.235557 -0 32.37196 -0 -6.891158 -8.949462 -1.468794 -6.461163 10.91897 -19.77649 -0 6.038437 -0 10.64176 -16.95338 25.10912 -2.982014 -2.358499 4.181323 2.335669 10.4707 -7.45634 1.388635 21.6605 7.058142 3.653408 -24.54336 9.322064 5.772085 -19.39598 11.7694 86.43119 35.52195 -18.76305 -0 0 13.95869 -9.93818 8.936518 5.417332 6.934498 -21.3259 -2.693196 -90.24347 20.71807 17.97696 0 0 -18.55099 15.16471 15.04466 -3.453742
1.025327 103.8196 7.10997 -0.13796 0.3112139 0.4032463 4.668014 -27.85452 4.482645 -0 27.13302 -0 -6.942981 -6.467357 -0.7875914 -6.194733 12.0235 -18.11775 -0 7.230824 -0 9.331249 -18.18258 23.12536 -2.664884 -1.899544 3.892715 2.407916 10.51789 -7.671373 1.238875 21.43702 7.207494 3.903099 -24.43629 9.024047 5.387404 -18.9093 11.67224 86.99052 35.02198 -19.65716 -0 0 13.00733 -10.88147 9.167769 5.630846 7.484526 -22.21384 -3.107407 -89.3097 20.29265 16.61773 0 0 -20.75658 15.23106 14.57749 -3.782913
1.325943 103.5088 10.92322 -0.322231 0.7680692 0.5693166 4.827384 -31.15941 2.077626 -0 20.58808 -0 -7.198028 -3.127448 0.09368053 -6.047278 13.35259 -15.81003 -0 9.494142 -0 7.888413 -19.27365 20.47307 -2.326113 -1.510957 3.569247 2.436467 10.66107 -7.911343 1.027 21.22468 7.295409 4.114366 -24.10862 8.543654 4.765126 -18.32263 11.59095 87.93779 34.1755 -20.86021 -0 0 11.60346 -12.28154 9.396119 6.006336 7.999564 -23.39914 -3.692577 -87.89202 19.18784 14.73823 0 0 -23.62889 15.54774 13.83924 -4.514634
1.59079 102.9833 15.67224 -0.2171083 0.4039227 0.8032889 4.234718 -32.87929 -1.532789 -0 14.08173 -0 -7.998265 1.275229 1.211299 -6.081504 14.55023 -12.80257 -0 12.82802 -0 6.521334 -19.70884 17.30713 -1.96632 -1.353884 3.193405 2.21625 11.13616 -8.009387 0.7329658 21.28104 7.299978 4.281439 -23.22322 7.759087 3.63406 -17.83522 11.64421 89.43308 31.95774 -22.108 -0 0 9.584365 -15.0694 9.630085 6.963105 8.379484 -25.07222 -4.766304 -86.02282 16.78172 12.30486 0 0 -26.8066 16.39369 13.21841 -6.061076
1.790314 102.354 21.45003 0.1275571 -0.7420694 1.127055 3.394215 -32.47974 -5.518692 -0 8.139905 -0 -9.237183 5.670402 2.134713 -6.271121 15.70802 -9.556023 -0 17.58044 -0 5.249057 -19.38453 14.05909 -1.520959 -1.707573 2.885982 1.788835 11.81847 -8.00295 0.4916978 21.65401 7.042253 4.203647 -22.01059 6.8079 1.825909 -17.61171 11.7128 91.58671 27.96795 -23.50463 -0 0 7.089046 -18.60243 9.662573 8.26002 8.428292 -27.0418 -6.132281 -84.16752 13.9866 9.868235 0 0 -30.32831 17.03266 13.14173 -7.30933
1.885649 101.8564 28.07065 0.4950308 -2.517517 1.505843 3.141266 -29.60668 -8.205004 -0 4.657859 -0 -10.66713 8.516388 2.226976 -6.360195 16.3796 -7.053369 -0 23.76203 -0 4.25624 -18.00365 11.80425 -0.9211018 -2.659376 2.788977 1.236936 12.54014 -7.905936 0.5021103 22.30507 6.467455 3.811446 -20.84194 6.018686 -0.4377112 -17.78385 11.65932 94.04455 22.72985 -24.72134 -0 0 4.740413 -21.84676 9.523468 9.453658 8.013408 -28.76047 -7.416941 -82.98549 12.08495 8.297241 0 0 -33.16648 16.90386 14.04725 -7.272549
1.840348 101.7891 35.09984 0.4903338 -4.361576 1.771509 3.99575 -25.3056 -8.335846 -0 4.644884 -0 -11.98795 8.903993 1.145118 -5.9541 15.99468 -6.002083 -0 31.31607 -0 3.48539 -15.56155 11.24847 -0.109763 -3.821734 2.917308 0.7619797 13.13632 -7.810288 0.8626173 22.97416 5.728803 3.228972 -20.12731 5.723433 -2.478761 -18.19632 11.42664 96.12303 17.99966 -25.43069 -0 0 3.304501 -23.70839 9.588242 10.09928 7.2188 -29.62066 -8.198198 -82.92575 12.12203 8.256097 0 0 -33.97888 15.76317 15.76828 -5.526139
1.650302 102.3405 42.07302 -0.01062953 -5.793978 1.688117 5.56494 -20.90662 -6.268216 -0 7.069294 -0 -13.01464 7.264805 -0.6204233 -5.030221 14.06015 -6.061349 -0 40.05596 -0 2.935397 -12.36334 12.13405 0.7833316 -4.556973 3.241623 0.5283942 13.70553 -7.799957 1.383945 23.32222 5.098989 2.704754 -19.92536 5.904312 -3.61614 -18.65283 11.19959 97.22982 15.53754 -25.5343 -0 0 3.250445 -23.91519 10.14692 10.10744 6.27433 -29.50734 -8.423355 -83.94504 13.51618 9.826396 0 0 -32.27604 14.18315 17.21431 -3.034145
1.355997 103.4837 48.73486 -0.6367992 -6.958635 1.162175 7.054502 -16.56804 -3.443812 -0 9.728597 -0 -13.65219 4.898905 -2.274651 -3.966012 10.57132 -6.178728 -0 49.08524 -0 2.769206 -8.914017 13.58395 1.504235 -4.639852 3.814458 0.4839885 14.55148 -7.843824 1.795916 23.22547 4.618968 2.290544 -19.95686 6.185927 -3.977556 -19.34981 11.20295 97.54301 15.02193 -25.13583 -0 0 4.421436 -23.26372 10.97416 9.877737 5.279754 -28.9112 -8.505343 -85.43576 14.69934 12.55219 0 0 -29.22635 12.84522 17.43103 -0.9193237
1.013014 105.0121 55.0057 -1.002607 -8.21586 0.265382 7.944532 -11.73678 -1.047462 -0 11.2353 -0 -13.8359 2.611678 -3.401141 -2.927803 5.846761 -5.868899 -0 56.4451 -0 2.986529 -5.785047 14.94661 1.884055 -4.275553 4.626741 0.4454098 15.6844 -7.770554 2.044518 22.84191 4.118764 1.883143 -19.96191 6.262237 -4.085772 -20.53189 11.45585 97.45194 15.00483 -24.15018 -0 0 6.4882 -22.70913 11.84505 9.936816 4.292769 -28.17775 -8.75376 -86.9227 15.01797 15.90476 0 0 -25.98652 11.79188 16.68184 0.6621435
0.6657257 106.645 60.8787 -1.097844 -9.531296 -0.8542192 8.229558 -6.28089 0.5364322 -0 11.52762 -0 -13.54032 0.4607805 -3.977827 -1.793842 0.3313515 -5.268673 -0 60.07202 -0 3.365706 -3.425088 15.96085 1.954704 -3.760062 5.51905 0.2922112 16.78397 -7.450205 2.207629 22.3525 3.507047 1.416116 -19.88846 6.111501 -4.196135 -22.1611 11.82395 97.0293 14.78986 -22.42161 -0 0 9.316731 -22.6721 12.87032 10.56246 3.420101 -27.28733 -9.087676 -88.38526 14.81251 19.596 0 0 -22.89321 10.65708 15.82406 2.150025
0.3609339 108.1111 66.4114 -1.118846 -10.60031 -2.051013 8.172785 -0.6420839 1.496899 -0 11.19759 -0 -12.79187 -1.733271 -4.178933 -0.4668395 -5.353787 -4.515166 -0 58.78921 -0 3.789991 -1.975553 16.62841 1.864858 -3.318605 6.327695 0.05027927 17.59943 -6.954342 2.319161 21.77131 2.81698 0.8600306 -19.82663 5.842269 -4.338175 -24.12929 12.16704 96.26808 14.42042 -20.02275 -0 0 12.88 -23.07004 14.1279 11.72962 2.709685 -26.213 -9.304999 -89.85351 14.43339 23.49695 0 0 -20.11717 9.210943 15.2262 3.870727
0.1547203 109.1948 71.72219 -1.228792 -11.13805 -3.221573 7.987688 4.572469 2.054163 -0 10.79171 -0 -11.71588 -4.188617 -4.150862 1.016658 -10.51312 -3.703699 -0 52.47751 -0 4.210536 -1.372395 17.00168 1.74364 -3.07807 6.933744 -0.1728055 17.99318 -6.434185 2.358489 21.10082 2.152988 0.239204 -19.83589 5.562302 -4.417806 -26.25052 12.40264 95.14017 14.11748 -17.18996 -0 0 16.96055 -23.65526 15.53968 13.26309 2.172232 -25.01374 -9.259653 -91.29204 14.06051 27.39814 0 0 -17.71475 7.521439 14.92596 5.795069
0.09166354 109.7823 76.9564 -1.484332 -11.00706 -4.30765 7.752885 8.867597 2.204745 -0 10.63442 -0 -10.57306 -7.023386 -3.909295 2.452253 -14.54475 -3.05952 -0 42.34939 -0 4.465849 -1.436306 17.1299 1.648534 -3.06097 7.248787 -0.2911507 17.84337 -5.967519 2.299622 20.4914 1.699357 -0.2849333 -19.83026 5.364632 -4.228123 -28.10105 12.50161 93.53967 14.16563 -14.2272 -0 0 20.96238 -24.22519 16.90904 14.86994 1.87892 -23.78851 -8.878719 -92.689 13.82224 30.84975 0 0 -15.39883 5.930356 15.01874 7.506851
0.1804831 109.892 82.2411 -1.822968 -10.34455 -5.288973 7.438653 12.05984 1.856802 -0 10.88573 -0 -9.708579 -9.967672 -3.409246 3.524178 -17.17551 -2.874133 -0 31.10302 -0 4.313861 -1.840035 17.12199 1.567461 -3.175545 7.268248 -0.3105893 17.14398 -5.524774 2.148777 20.17091 1.647373 -0.4466823 -19.61221 5.29614 -3.594497 -29.17716 12.47957 91.44287 14.79426 -11.46622 -0 0 24.10607 -24.68314 17.92937 16.16803 1.924271 -22.66381 -8.234602 -94.03774 13.71879 33.33386 0 0 -12.6959 4.889117 15.57033 8.414483
